<svg width="1920.183" height="1075.636" xmlns="http://www.w3.org/2000/svg">
 <defs>
  <clipPath id="clip-path">
   <path fill="url(#linear-gradient)" d="m0.058,607.558s95.269,204.193 401.21,161.147s419.656,-32.1 544.188,96.892s343.977,107.54 572.909,67.066s360.19,68.158 401.79,142.968c0.041,-2.4 -0.074,-1075.621 -0.074,-1075.621l-1920,0.011l-0.023,607.537z" id="Path_199"/>
  </clipPath>
  <linearGradient gradientUnits="objectBoundingBox" y2="1" x2="0.5" x1="0.5" id="linear-gradient">
   <stop stop-color="#361cc1" offset="0"/>
   <stop stop-color="#2e82ef" offset="1"/>
  </linearGradient>
 </defs>
 <g>
  <title>background</title>
  <rect fill="none" id="canvas_background" height="2153.550105" width="3842.862462" y="-1" x="-1"/>
 </g>
 <g>
  <title>Layer 1</title>
  <g fill="url(#linear-gradient)" id="Group_112">
   <path id="Path_194" d="m0.058,607.558s95.269,204.193 401.21,161.147s419.656,-32.1 544.188,96.892s343.977,107.54 572.909,67.066s360.19,68.158 401.79,142.968c0.041,-2.4 -0.074,-1075.621 -0.074,-1075.621l-1920,0.011l-0.023,607.537z" fill="#fc9432" stroke="#f9542f"/>
   <g id="Mask_Group_6" clip-path="url(#clip-path)">
    <path id="Path_4" d="m25.721,687.74298s174.242,-392.046 817.433,-255.032s869.415,77.467 1056.161,-463.982" fill="#fc9432" stroke="#f9542f" stroke-width="128" opacity="0.14"/>
   </g>
  </g>
 </g>
</svg>